<svg width="1904" height="926" viewBox="0 0 1904 926" fill="none" xmlns="http://www.w3.org/2000/svg">
<rect width="1904" height="926" fill="#F9F9F9"/>
<path d="M807.83 438.56C788.762 436.062 783.173 450.67 782.762 458.286C765.93 460.85 762.598 473.546 763.037 479.573C764.023 495.157 775.995 499.765 781.858 500.121H843.994C848.07 499.792 849.418 499.436 849.583 499.299C861.55 494.894 864.158 484.313 863.966 479.573C864.032 467.146 854.404 461.026 849.583 459.519C849.911 451.76 847.418 445.985 846.131 444.067C832.388 425.262 814.871 432.561 807.83 438.56Z" fill="#497FFF"/>
<path d="M803.491 486.061V454.976H816.909C819.216 454.976 821.235 455.396 822.965 456.235C824.695 457.075 826.041 458.285 827.002 459.863C827.964 461.442 828.444 463.334 828.444 465.54C828.444 467.766 827.948 469.643 826.957 471.171C825.975 472.699 824.594 473.852 822.813 474.631C821.042 475.411 818.973 475.8 816.605 475.8H808.591V469.243H814.905C815.897 469.243 816.742 469.122 817.44 468.879C818.148 468.626 818.69 468.226 819.064 467.68C819.449 467.133 819.641 466.42 819.641 465.54C819.641 464.649 819.449 463.926 819.064 463.369C818.69 462.803 818.148 462.388 817.44 462.125C816.742 461.851 815.897 461.715 814.905 461.715H811.93V486.061H803.491ZM821.705 471.793L829.476 486.061H820.309L812.72 471.793H821.705Z" fill="white"/>
<path d="M904.108 450.915L912.759 476.232H913.108L921.76 450.915H926.829L915.643 482H910.224L899.038 450.915H904.108ZM930.954 482V458.686H935.492V482H930.954ZM933.246 455.089C932.457 455.089 931.779 454.826 931.212 454.3C930.655 453.764 930.377 453.126 930.377 452.387C930.377 451.639 930.655 451.001 931.212 450.475C931.779 449.939 932.457 449.671 933.246 449.671C934.035 449.671 934.708 449.939 935.264 450.475C935.831 451.001 936.114 451.639 936.114 452.387C936.114 453.126 935.831 453.764 935.264 454.3C934.708 454.826 934.035 455.089 933.246 455.089ZM950.325 482.455C948.443 482.455 946.763 481.975 945.286 481.013C943.819 480.042 942.665 478.661 941.825 476.87C940.995 475.069 940.581 472.908 940.581 470.389C940.581 467.869 941.001 465.714 941.84 463.923C942.69 462.132 943.854 460.761 945.331 459.81C946.809 458.858 948.483 458.383 950.355 458.383C951.802 458.383 952.966 458.626 953.846 459.111C954.737 459.587 955.425 460.143 955.911 460.781C956.406 461.418 956.791 461.98 957.064 462.466H957.337V450.915H961.876V482H957.444V478.372H957.064C956.791 478.868 956.396 479.435 955.88 480.072C955.374 480.71 954.676 481.266 953.786 481.742C952.895 482.218 951.742 482.455 950.325 482.455ZM951.327 478.585C952.632 478.585 953.735 478.241 954.636 477.553C955.546 476.855 956.234 475.888 956.7 474.654C957.175 473.419 957.413 471.982 957.413 470.343C957.413 468.724 957.18 467.308 956.715 466.093C956.25 464.879 955.567 463.933 954.666 463.255C953.765 462.577 952.652 462.238 951.327 462.238C949.961 462.238 948.822 462.592 947.912 463.301C947.001 464.009 946.313 464.975 945.847 466.2C945.392 467.424 945.164 468.805 945.164 470.343C945.164 471.901 945.397 473.303 945.863 474.548C946.328 475.792 947.016 476.779 947.927 477.507C948.848 478.226 949.981 478.585 951.327 478.585ZM978.401 482.471C976.104 482.471 974.126 481.98 972.466 480.998C970.817 480.007 969.542 478.615 968.641 476.824C967.751 475.023 967.306 472.913 967.306 470.495C967.306 468.107 967.751 466.002 968.641 464.181C969.542 462.359 970.797 460.938 972.405 459.916C974.024 458.894 975.917 458.383 978.082 458.383C979.397 458.383 980.672 458.6 981.907 459.035C983.141 459.471 984.249 460.154 985.231 461.085C986.212 462.015 986.987 463.225 987.553 464.712C988.12 466.189 988.403 467.986 988.403 470.1V471.709H969.871V468.309H983.956C983.956 467.115 983.713 466.058 983.227 465.137C982.742 464.206 982.059 463.473 981.178 462.936C980.308 462.4 979.286 462.132 978.112 462.132C976.837 462.132 975.724 462.445 974.773 463.073C973.832 463.69 973.104 464.5 972.588 465.501C972.082 466.493 971.829 467.571 971.829 468.734V471.39C971.829 472.949 972.102 474.274 972.648 475.367C973.205 476.46 973.979 477.295 974.971 477.872C975.962 478.438 977.121 478.722 978.446 478.722C979.306 478.722 980.091 478.6 980.799 478.357C981.507 478.104 982.119 477.73 982.635 477.234C983.152 476.738 983.546 476.126 983.819 475.398L988.115 476.172C987.771 477.436 987.153 478.544 986.263 479.496C985.383 480.437 984.275 481.17 982.939 481.696C981.613 482.212 980.101 482.471 978.401 482.471ZM1003.26 482.471C1001.07 482.471 999.166 481.97 997.537 480.968C995.907 479.966 994.643 478.565 993.742 476.764C992.841 474.962 992.391 472.858 992.391 470.449C992.391 468.031 992.841 465.916 993.742 464.105C994.643 462.294 995.907 460.887 997.537 459.885C999.166 458.884 1001.07 458.383 1003.26 458.383C1005.44 458.383 1007.35 458.884 1008.98 459.885C1010.61 460.887 1011.87 462.294 1012.78 464.105C1013.68 465.916 1014.13 468.031 1014.13 470.449C1014.13 472.858 1013.68 474.962 1012.78 476.764C1011.87 478.565 1010.61 479.966 1008.98 480.968C1007.35 481.97 1005.44 482.471 1003.26 482.471ZM1003.27 478.661C1004.69 478.661 1005.86 478.286 1006.8 477.538C1007.73 476.789 1008.41 475.792 1008.86 474.548C1009.31 473.303 1009.54 471.932 1009.54 470.434C1009.54 468.947 1009.31 467.581 1008.86 466.336C1008.41 465.081 1007.73 464.075 1006.8 463.316C1005.86 462.557 1004.69 462.177 1003.27 462.177C1001.85 462.177 1000.66 462.557 999.722 463.316C998.791 464.075 998.098 465.081 997.643 466.336C997.198 467.581 996.975 468.947 996.975 470.434C996.975 471.932 997.198 473.303 997.643 474.548C998.098 475.792 998.791 476.789 999.722 477.538C1000.66 478.286 1001.85 478.661 1003.27 478.661ZM1051.9 460.735C1051.61 459.815 1051.22 458.99 1050.72 458.261C1050.24 457.523 1049.65 456.895 1048.98 456.379C1048.3 455.853 1047.52 455.453 1046.65 455.18C1045.79 454.907 1044.85 454.77 1043.81 454.77C1042.06 454.77 1040.49 455.221 1039.08 456.121C1037.67 457.022 1036.56 458.342 1035.74 460.083C1034.93 461.813 1034.53 463.933 1034.53 466.442C1034.53 468.962 1034.94 471.092 1035.76 472.832C1036.57 474.573 1037.7 475.893 1039.12 476.794C1040.55 477.694 1042.18 478.145 1044 478.145C1045.69 478.145 1047.16 477.801 1048.41 477.113C1049.68 476.425 1050.66 475.453 1051.34 474.198C1052.04 472.934 1052.39 471.446 1052.39 469.736L1053.6 469.964H1044.71V466.093H1056.93V469.63C1056.93 472.24 1056.37 474.507 1055.26 476.43C1054.16 478.342 1052.63 479.819 1050.68 480.862C1048.73 481.904 1046.51 482.425 1044 482.425C1041.18 482.425 1038.71 481.777 1036.59 480.482C1034.48 479.187 1032.83 477.35 1031.64 474.973C1030.46 472.584 1029.87 469.751 1029.87 466.473C1029.87 463.994 1030.21 461.768 1030.9 459.794C1031.59 457.821 1032.55 456.147 1033.8 454.77C1035.05 453.384 1036.52 452.327 1038.21 451.598C1039.91 450.86 1041.77 450.49 1043.78 450.49C1045.46 450.49 1047.03 450.738 1048.47 451.234C1049.93 451.73 1051.23 452.433 1052.36 453.344C1053.5 454.254 1054.45 455.337 1055.2 456.592C1055.95 457.836 1056.45 459.218 1056.72 460.735H1051.9ZM1077.29 472.332V458.686H1081.84V482H1077.38V477.963H1077.13C1076.6 479.207 1075.74 480.244 1074.55 481.074C1073.38 481.894 1071.92 482.304 1070.17 482.304C1068.67 482.304 1067.34 481.975 1066.19 481.317C1065.05 480.649 1064.15 479.663 1063.49 478.357C1062.84 477.052 1062.52 475.438 1062.52 473.515V458.686H1067.06V472.969C1067.06 474.558 1067.5 475.822 1068.38 476.764C1069.26 477.705 1070.4 478.175 1071.81 478.175C1072.66 478.175 1073.5 477.963 1074.34 477.538C1075.19 477.113 1075.9 476.47 1076.45 475.61C1077.02 474.75 1077.3 473.657 1077.29 472.332ZM1087.94 482V458.686H1092.48V482H1087.94ZM1090.23 455.089C1089.44 455.089 1088.76 454.826 1088.2 454.3C1087.64 453.764 1087.36 453.126 1087.36 452.387C1087.36 451.639 1087.64 451.001 1088.2 450.475C1088.76 449.939 1089.44 449.671 1090.23 449.671C1091.02 449.671 1091.69 449.939 1092.25 450.475C1092.81 451.001 1093.1 451.639 1093.1 452.387C1093.1 453.126 1092.81 453.764 1092.25 454.3C1091.69 454.826 1091.02 455.089 1090.23 455.089ZM1107.31 482.455C1105.43 482.455 1103.75 481.975 1102.27 481.013C1100.8 480.042 1099.65 478.661 1098.81 476.87C1097.98 475.069 1097.56 472.908 1097.56 470.389C1097.56 467.869 1097.98 465.714 1098.82 463.923C1099.67 462.132 1100.84 460.761 1102.32 459.81C1103.79 458.858 1105.47 458.383 1107.34 458.383C1108.79 458.383 1109.95 458.626 1110.83 459.111C1111.72 459.587 1112.41 460.143 1112.89 460.781C1113.39 461.418 1113.77 461.98 1114.05 462.466H1114.32V450.915H1118.86V482H1114.43V478.372H1114.05C1113.77 478.868 1113.38 479.435 1112.86 480.072C1112.36 480.71 1111.66 481.266 1110.77 481.742C1109.88 482.218 1108.73 482.455 1107.31 482.455ZM1108.31 478.585C1109.62 478.585 1110.72 478.241 1111.62 477.553C1112.53 476.855 1113.22 475.888 1113.68 474.654C1114.16 473.419 1114.4 471.982 1114.4 470.343C1114.4 468.724 1114.16 467.308 1113.7 466.093C1113.23 464.879 1112.55 463.933 1111.65 463.255C1110.75 462.577 1109.64 462.238 1108.31 462.238C1106.94 462.238 1105.81 462.592 1104.9 463.301C1103.98 464.009 1103.3 464.975 1102.83 466.2C1102.38 467.424 1102.15 468.805 1102.15 470.343C1102.15 471.901 1102.38 473.303 1102.85 474.548C1103.31 475.792 1104 476.779 1104.91 477.507C1105.83 478.226 1106.96 478.585 1108.31 478.585ZM1135.38 482.471C1133.09 482.471 1131.11 481.98 1129.45 480.998C1127.8 480.007 1126.53 478.615 1125.62 476.824C1124.73 475.023 1124.29 472.913 1124.29 470.495C1124.29 468.107 1124.73 466.002 1125.62 464.181C1126.53 462.359 1127.78 460.938 1129.39 459.916C1131.01 458.894 1132.9 458.383 1135.07 458.383C1136.38 458.383 1137.66 458.6 1138.89 459.035C1140.13 459.471 1141.23 460.154 1142.21 461.085C1143.2 462.015 1143.97 463.225 1144.54 464.712C1145.1 466.189 1145.39 467.986 1145.39 470.1V471.709H1126.85V468.309H1140.94C1140.94 467.115 1140.7 466.058 1140.21 465.137C1139.73 464.206 1139.04 463.473 1138.16 462.936C1137.29 462.4 1136.27 462.132 1135.1 462.132C1133.82 462.132 1132.71 462.445 1131.76 463.073C1130.82 463.69 1130.09 464.5 1129.57 465.501C1129.07 466.493 1128.81 467.571 1128.81 468.734V471.39C1128.81 472.949 1129.09 474.274 1129.63 475.367C1130.19 476.46 1130.96 477.295 1131.95 477.872C1132.95 478.438 1134.1 478.722 1135.43 478.722C1136.29 478.722 1137.07 478.6 1137.78 478.357C1138.49 478.104 1139.1 477.73 1139.62 477.234C1140.14 476.738 1140.53 476.126 1140.8 475.398L1145.1 476.172C1144.75 477.436 1144.14 478.544 1143.25 479.496C1142.37 480.437 1141.26 481.17 1139.92 481.696C1138.6 482.212 1137.08 482.471 1135.38 482.471Z" fill="black"/>
</svg>
