<svg width="126" height="126" viewBox="0 0 126 126" fill="none" xmlns="http://www.w3.org/2000/svg">
<path d="M47.25 94.5V26.25L110.25 15.75V84" stroke="black" stroke-width="2" stroke-linecap="round" stroke-linejoin="round"/>
<path d="M31.5 110.25C40.1985 110.25 47.25 103.198 47.25 94.5C47.25 85.8015 40.1985 78.75 31.5 78.75C22.8015 78.75 15.75 85.8015 15.75 94.5C15.75 103.198 22.8015 110.25 31.5 110.25Z" stroke="black" stroke-width="2" stroke-linecap="round" stroke-linejoin="round"/>
<path d="M94.5 99.75C103.198 99.75 110.25 92.6985 110.25 84C110.25 75.3015 103.198 68.25 94.5 68.25C85.8015 68.25 78.75 75.3015 78.75 84C78.75 92.6985 85.8015 99.75 94.5 99.75Z" stroke="black" stroke-width="2" stroke-linecap="round" stroke-linejoin="round"/>
</svg>
