<svg width="113" height="113" viewBox="0 0 113 113" fill="none" xmlns="http://www.w3.org/2000/svg">
<path d="M106.126 30.2274C105.566 27.9929 104.427 25.9455 102.824 24.2921C101.22 22.6387 99.2081 21.4378 96.9916 20.8108C88.8933 18.8333 56.4999 18.8333 56.4999 18.8333C56.4999 18.8333 24.1066 18.8333 16.0083 20.9991C13.7918 21.6262 11.7801 22.8271 10.1763 24.4805C8.57246 26.1339 7.43339 28.1812 6.87409 30.4158C5.39198 38.6344 4.66699 46.9717 4.70826 55.3228C4.65543 63.7368 5.38046 72.1377 6.87409 80.4183C7.49069 82.5834 8.65529 84.5529 10.2554 86.1364C11.8554 87.72 13.8369 88.8641 16.0083 89.4583C24.1066 91.6241 56.4999 91.6241 56.4999 91.6241C56.4999 91.6241 88.8933 91.6241 96.9916 89.4583C99.2081 88.8312 101.22 87.6303 102.824 85.9769C104.427 84.3235 105.566 82.2761 106.126 80.0416C107.596 71.8848 108.321 63.6111 108.292 55.3228C108.344 46.9088 107.619 38.508 106.126 30.2274Z" stroke="black" stroke-width="2" stroke-linecap="round" stroke-linejoin="round"/>
<path d="M45.9062 70.7193L72.9792 55.323L45.9062 39.9268V70.7193Z" stroke="black" stroke-width="2" stroke-linecap="round" stroke-linejoin="round"/>
</svg>
