<svg width="512" height="512" viewBox="0 0 512 512" fill="none" xmlns="http://www.w3.org/2000/svg">
<path d="M229.05 120.123C138.218 108.221 111.595 177.806 109.637 214.087C29.4552 226.302 13.5858 286.778 15.6739 315.489C20.3721 389.72 77.4027 411.671 105.331 413.368H401.316C420.735 411.802 427.156 410.105 427.939 409.453C484.944 388.467 497.368 338.066 496.454 315.489C496.767 256.292 450.908 227.137 427.939 219.959C429.505 183 417.629 155.49 411.496 146.355C346.034 56.776 262.589 91.5425 229.05 120.123Z" fill="#497FFF"/>
<path d="M211.456 364.128V187.59H287.657C300.759 187.59 312.224 189.975 322.051 194.745C331.877 199.515 339.521 206.382 344.98 215.347C350.439 224.311 353.169 235.058 353.169 247.585C353.169 260.228 350.353 270.888 344.721 279.566C339.147 288.243 331.303 294.794 321.189 299.219C311.132 303.644 299.38 305.857 285.933 305.857H240.419V268.618H276.278C281.91 268.618 286.709 267.929 290.674 266.549C294.697 265.113 297.771 262.843 299.897 259.74C302.081 256.636 303.173 252.585 303.173 247.585C303.173 242.528 302.081 238.42 299.897 235.259C297.771 232.041 294.697 229.685 290.674 228.19C286.709 226.639 281.91 225.863 276.278 225.863H259.383V364.128H211.456ZM314.896 283.1L359.03 364.128H306.966L263.866 283.1H314.896Z" fill="white"/>
</svg>
