<svg width="500" height="500" viewBox="0 0 500 500" fill="none" xmlns="http://www.w3.org/2000/svg">
<path d="M44.3101 258.15C44.3101 258.15 46.6601 331.15 107.58 379.75C168.5 428.35 252.9 431.87 321.23 436.49C389.56 441.11 442 402.43 450 344C458 285.57 405.7 268.37 377.37 201.8C349.04 135.23 351.56 113.36 291.62 72.42C231.68 31.48 137.86 56.57 88.7001 126.71C39.5401 196.85 44.3101 258.15 44.3101 258.15Z" fill="#367AFF"/>
<path opacity="0.7" d="M44.3101 258.15C44.3101 258.15 46.6601 331.15 107.58 379.75C168.5 428.35 252.9 431.87 321.23 436.49C389.56 441.11 442 402.43 450 344C458 285.57 405.7 268.37 377.37 201.8C349.04 135.23 351.56 113.36 291.62 72.42C231.68 31.48 137.86 56.57 88.7001 126.71C39.5401 196.85 44.3101 258.15 44.3101 258.15Z" fill="white"/>
<path d="M341.49 407.21C381.365 407.21 413.69 397.62 413.69 385.79C413.69 373.96 381.365 364.37 341.49 364.37C301.615 364.37 269.29 373.96 269.29 385.79C269.29 397.62 301.615 407.21 341.49 407.21Z" fill="#263238" stroke="#263238" stroke-width="1.193" stroke-linecap="round" stroke-linejoin="round"/>
<path d="M341.49 374.22C375.64 374.22 404.24 381.22 411.75 390.71C412.936 389.337 413.62 387.602 413.69 385.79C413.69 373.95 381.36 364.36 341.49 364.36C301.62 364.36 269.28 373.95 269.28 385.79C269.35 387.602 270.034 389.337 271.22 390.71C278.73 381.26 307.33 374.22 341.49 374.22Z" fill="white" stroke="#263238" stroke-width="1.193" stroke-linecap="round" stroke-linejoin="round"/>
<path d="M331.63 404.52C307.51 403.43 289.31 398.52 289.31 392.52C289.322 391.865 289.527 391.229 289.9 390.69" stroke="white" stroke-width="1.193" stroke-linecap="round" stroke-linejoin="round"/>
<path d="M387.6 386.68C391.73 388.43 394.09 390.43 394.09 392.56C394.09 399.29 370.63 404.74 341.7 404.74H340.45" stroke="white" stroke-width="1.193" stroke-linecap="round" stroke-linejoin="round"/>
<path d="M296.36 386.45C305.43 382.82 322.36 380.37 341.7 380.37C352.705 380.285 363.695 381.185 374.54 383.06" stroke="white" stroke-width="1.193" stroke-linecap="round" stroke-linejoin="round"/>
<path d="M330.94 396.74C324.83 395.89 320.74 394.34 320.74 392.56C320.74 389.87 330.13 387.69 341.74 387.69C353.35 387.69 362.69 389.87 362.69 392.56C362.69 394.87 355.79 396.8 346.53 397.3" stroke="white" stroke-width="1.193" stroke-linecap="round" stroke-linejoin="round"/>
<path d="M51.52 299.68C83.01 290.73 149.27 273.07 185.84 271.74C235 270 318 305.68 369.82 311.93C421.64 318.18 456.46 316.4 456.46 316.4" stroke="#263238" stroke-width="1.193" stroke-linecap="round" stroke-linejoin="round"/>
<path d="M34 304.79C34 304.79 36.72 303.96 41.49 302.57" stroke="#263238" stroke-width="1.193" stroke-linecap="round" stroke-linejoin="round"/>
<path d="M442.47 249.12C424.318 245.133 405.748 243.376 387.17 243.89C348.75 245.18 307.17 250.26 255.76 256.89C204.35 263.52 131.14 226.89 81.3601 240.48C31.5801 254.07 35.3601 258.16 35.3601 258.16" stroke="#263238" stroke-width="1.193" stroke-linecap="round" stroke-linejoin="round"/>
<path d="M456.63 252.8C456.63 252.8 454.69 252.16 451.18 251.23" stroke="#263238" stroke-width="1.193" stroke-linecap="round" stroke-linejoin="round"/>
<path d="M364.45 158.35C363.897 156.102 362.606 154.105 360.784 152.678C358.963 151.25 356.715 150.474 354.4 150.474C352.085 150.474 349.838 151.25 348.016 152.678C346.194 154.105 344.903 156.102 344.35 158.35H364.45Z" stroke="#263238" stroke-width="1.193" stroke-linecap="round" stroke-linejoin="round"/>
<path d="M466 158.35C465.393 155.789 464.011 153.476 462.042 151.728C460.074 149.98 457.615 148.881 455 148.58C455.822 144.236 455.674 139.764 454.567 135.483C453.459 131.203 451.419 127.221 448.593 123.821C445.766 120.421 442.223 117.688 438.217 115.818C434.211 113.947 429.841 112.985 425.42 113C418.36 113 411.525 115.484 406.112 120.016C400.698 124.548 397.052 130.84 395.81 137.79C392.971 135.57 389.565 134.193 385.981 133.816C382.396 133.438 378.778 134.077 375.54 135.658C372.301 137.238 369.572 139.698 367.664 142.756C365.756 145.813 364.746 149.346 364.75 152.95C364.756 154.785 365.022 156.61 365.54 158.37L466 158.35Z" stroke="#263238" stroke-width="1.193" stroke-linecap="round" stroke-linejoin="round"/>
<path d="M185.57 182.49C185.295 181.343 184.641 180.323 183.715 179.592C182.789 178.862 181.644 178.465 180.465 178.465C179.286 178.465 178.141 178.862 177.215 179.592C176.288 180.323 175.635 181.343 175.36 182.49H185.57Z" stroke="#263238" stroke-width="1.193" stroke-linecap="round" stroke-linejoin="round"/>
<path d="M237.12 182.49C236.816 181.182 236.116 180.001 235.116 179.106C234.115 178.211 232.863 177.647 231.53 177.49C232.011 175.472 232.076 173.378 231.721 171.335C231.366 169.291 230.599 167.342 229.466 165.605C228.333 163.868 226.858 162.38 225.13 161.231C223.403 160.083 221.46 159.299 219.42 158.926C217.38 158.553 215.285 158.6 213.264 159.064C211.242 159.527 209.336 160.398 207.662 161.622C205.988 162.846 204.581 164.399 203.527 166.185C202.472 167.971 201.793 169.953 201.53 172.01C200.089 170.884 198.36 170.185 196.541 169.994C194.722 169.802 192.886 170.126 191.242 170.927C189.598 171.729 188.212 172.977 187.243 174.528C186.274 176.079 185.76 177.871 185.76 179.7C185.764 180.634 185.899 181.563 186.16 182.46L237.12 182.49Z" stroke="#263238" stroke-width="1.193" stroke-linecap="round" stroke-linejoin="round"/>
<path d="M231.93 198.63C231.757 197.906 231.346 197.26 230.761 196.799C230.177 196.337 229.454 196.086 228.71 196.086C227.965 196.086 227.242 196.337 226.658 196.799C226.074 197.26 225.662 197.906 225.49 198.63H231.93Z" stroke="#263238" stroke-width="1.193" stroke-linecap="round" stroke-linejoin="round"/>
<path d="M264.47 198.63C264.275 197.808 263.832 197.067 263.2 196.506C262.568 195.946 261.779 195.595 260.94 195.5C261.048 194.916 261.102 194.324 261.1 193.73C261.07 191.345 260.157 189.055 258.537 187.304C256.917 185.553 254.706 184.465 252.33 184.25C249.954 184.034 247.583 184.708 245.675 186.139C243.767 187.571 242.458 189.659 242 192C241.09 191.29 239.998 190.849 238.85 190.729C237.702 190.609 236.544 190.814 235.506 191.321C234.469 191.828 233.595 192.615 232.984 193.595C232.373 194.574 232.049 195.706 232.05 196.86C232.051 197.449 232.135 198.035 232.3 198.6L264.47 198.63Z" stroke="#263238" stroke-width="1.193" stroke-linecap="round" stroke-linejoin="round"/>
<path d="M162.65 313.83C162.298 313.835 161.952 313.741 161.65 313.56C161.213 313.29 160.896 312.862 160.766 312.365C160.635 311.868 160.701 311.34 160.95 310.89C161.44 310.03 285.08 175.2 341.65 125.76C341.847 125.602 342.097 125.524 342.35 125.542C342.602 125.561 342.838 125.674 343.01 125.86C343.174 126.059 343.256 126.313 343.237 126.57C343.219 126.827 343.101 127.067 342.91 127.24C286.62 176.47 164.81 312 164.32 312.85C164.153 313.147 163.911 313.394 163.618 313.566C163.324 313.738 162.99 313.829 162.65 313.83Z" fill="#263238"/>
<path d="M169.48 287C169.48 287 175.61 280.46 179.29 280.46C182.97 280.46 189.92 286.59 189.51 289.86C189.1 293.13 182.97 290.27 182.97 290.27C182.97 290.27 177.24 298.04 171.52 296.81C165.8 295.58 169.48 287 169.48 287Z" fill="#367AFF" stroke="#263238" stroke-width="1.193" stroke-linecap="round" stroke-linejoin="round"/>
<path d="M183 290.25C183 290.25 186.75 292.85 187.08 294.68C187.41 296.51 182.92 301.68 177.93 302.84C172.94 304 170.27 301.17 171.77 298.51C173.27 295.85 179.22 290.49 183 290.25Z" fill="#367AFF" stroke="#263238" stroke-width="1.193" stroke-linecap="round" stroke-linejoin="round"/>
<path d="M337 266.56V131.27C337 131.27 334.27 141.06 334.27 141.77" stroke="#263238" stroke-width="1.193" stroke-linecap="round" stroke-linejoin="round"/>
<path d="M393.42 273.69H289.68V356.81H393.42V273.69Z" fill="#367AFF" stroke="#263238" stroke-width="1.193" stroke-linecap="round" stroke-linejoin="round"/>
<path d="M338.48 273.34V268.58C338.48 268.264 338.355 267.962 338.132 267.738C337.908 267.515 337.606 267.39 337.29 267.39C336.974 267.39 336.672 267.515 336.449 267.738C336.225 267.962 336.1 268.264 336.1 268.58V273.34H338.48Z" fill="#263238"/>
<path d="M348 261.76V262C347.903 261.818 347.759 261.665 347.584 261.558C347.408 261.451 347.206 261.393 347 261.39C346.682 261.39 346.377 261.516 346.151 261.741C345.926 261.966 345.8 262.272 345.8 262.59V275.3C345.8 276.271 345.415 277.203 344.729 277.891C344.043 278.579 343.112 278.967 342.14 278.97C341.637 278.971 341.139 278.865 340.68 278.66C340.415 279.055 340.299 279.532 340.354 280.005C340.409 280.478 340.631 280.916 340.98 281.24C341.363 281.312 341.751 281.349 342.14 281.35C342.935 281.35 343.721 281.193 344.455 280.889C345.189 280.585 345.856 280.14 346.418 279.578C346.98 279.016 347.425 278.349 347.729 277.615C348.034 276.881 348.19 276.094 348.19 275.3V269.41H350.93L348 261.76Z" fill="#263238"/>
<path d="M337.1 130C337.1 130 339.22 122.47 337.34 123.17C335.46 123.87 337.1 130 337.1 130Z" stroke="#263238" stroke-width="1.193" stroke-linecap="round" stroke-linejoin="round"/>
<path d="M337.1 130C337.1 130 329.1 127.17 329.81 129.76C330.52 132.35 337.1 130 337.1 130Z" stroke="#263238" stroke-width="1.193" stroke-linecap="round" stroke-linejoin="round"/>
<path d="M164.59 195.63C164.59 195.63 154.72 190.1 135.36 192.87C116 195.64 112.31 211.6 115.47 228.19C118.63 244.78 136.94 258.83 139.71 257.65C142.48 256.47 138.92 219.33 145.24 212.22C151.56 205.11 172.1 206.3 173.24 200.77C174.38 195.24 164.59 195.63 164.59 195.63Z" fill="#263238" stroke="#263238" stroke-width="1.193" stroke-linecap="round" stroke-linejoin="round"/>
<path d="M130.18 205.48L132.18 218.55C132.18 218.55 119.78 252.4 121.79 257.1C123.8 261.8 142.56 263.46 142.56 263.46C142.56 263.46 173.06 267.15 182.11 263.46C191.16 259.77 186.47 249.05 185.46 246.04C184.45 243.03 178.76 218.89 178.76 218.89C178.76 218.89 180.76 213.19 180.76 210.18C180.76 207.17 180.42 198.78 179.08 196.77C177.74 194.76 154.28 192.41 143.89 194.09C133.5 195.77 128.84 198.45 130.18 205.48Z" fill="#757575" stroke="#263238" stroke-width="1.193" stroke-linecap="round" stroke-linejoin="round"/>
<path d="M135.55 220.57C135.55 220.57 135.21 249.72 136.89 255.42C138.57 261.12 145.27 267.82 159.34 266.14C173.41 264.46 174.76 251.06 174.76 251.06L173.76 219.9L135.55 220.57Z" fill="white" stroke="#263238" stroke-width="1.193" stroke-linecap="round" stroke-linejoin="round"/>
<path d="M159.68 241.51C159.682 242.009 159.536 242.497 159.26 242.913C158.985 243.328 158.592 243.653 158.131 243.845C157.671 244.038 157.164 244.089 156.675 243.993C156.185 243.897 155.735 243.657 155.382 243.305C155.028 242.953 154.787 242.504 154.689 242.015C154.591 241.526 154.641 241.019 154.831 240.558C155.021 240.097 155.344 239.703 155.759 239.425C156.174 239.148 156.661 239 157.16 239C157.491 238.999 157.818 239.063 158.124 239.188C158.429 239.314 158.707 239.498 158.941 239.732C159.176 239.965 159.361 240.242 159.488 240.547C159.615 240.852 159.68 241.18 159.68 241.51Z" stroke="#263238" stroke-width="1.193" stroke-miterlimit="10"/>
<path d="M159.34 252.07C159.34 252.403 159.241 252.728 159.056 253.004C158.871 253.281 158.608 253.496 158.301 253.623C157.993 253.75 157.655 253.783 157.329 253.717C157.002 253.651 156.703 253.49 156.468 253.254C156.234 253.018 156.075 252.718 156.011 252.392C155.947 252.065 155.982 251.727 156.111 251.42C156.239 251.113 156.456 250.852 156.734 250.668C157.011 250.485 157.337 250.388 157.67 250.39C157.89 250.39 158.108 250.433 158.311 250.518C158.515 250.603 158.699 250.726 158.854 250.883C159.01 251.039 159.132 251.224 159.216 251.428C159.299 251.632 159.341 251.85 159.34 252.07Z" fill="#263238"/>
<path d="M149.22 230.76C150.29 231.92 150.66 233.31 150.06 233.88C149.46 234.45 148.06 233.97 147.01 232.82C145.96 231.67 145.56 230.28 146.17 229.71C146.78 229.14 148.15 229.61 149.22 230.76Z" fill="#263238"/>
<path d="M162.83 230.76C161.76 231.92 161.38 233.31 161.99 233.88C162.6 234.45 163.99 233.97 164.99 232.82C165.99 231.67 166.44 230.28 165.83 229.71C165.22 229.14 163.9 229.61 162.83 230.76Z" fill="#263238"/>
<path d="M142.06 226.81C142.811 225.702 143.89 224.857 145.145 224.395C146.401 223.932 147.77 223.874 149.06 224.23" stroke="#263238" stroke-width="1.193" stroke-linecap="round" stroke-linejoin="round"/>
<path d="M162.3 224.6C162.3 224.6 167.08 223.13 168.56 227.18" stroke="#263238" stroke-width="1.193" stroke-linecap="round" stroke-linejoin="round"/>
<path d="M178.44 411.62C178.44 411.62 183.71 408.46 186.63 407.22C186.904 407.094 187.184 406.984 187.47 406.89C190.05 406.03 197.36 406.46 204.23 402.16C211.1 397.86 207.67 392.7 202.51 391.41C197.35 390.12 191.77 388.41 191.77 388.41L190.48 368.2C190.48 368.2 175 372.5 169.84 374.65C164.68 376.8 167.69 407.32 168.12 409.9C168.55 412.48 168.55 414.2 178.44 411.62Z" fill="#263238" stroke="#263238" stroke-width="1.193" stroke-linecap="round" stroke-linejoin="round"/>
<path d="M195.64 402.16C186.64 403.88 186.64 405.6 176.72 407.32C173.814 407.9 170.851 408.142 167.89 408.04C167.99 408.96 168.07 409.61 168.12 409.9C168.55 412.48 168.55 414.2 178.44 411.62C178.44 411.62 183.71 408.46 186.63 407.22C186.904 407.094 187.184 406.984 187.47 406.89C190.05 406.03 197.36 406.46 204.23 402.16C206.44 400.79 207.57 399.32 207.94 397.92C204.036 399.847 199.903 401.272 195.64 402.16Z" fill="white" stroke="#263238" stroke-width="1.193" stroke-linecap="round" stroke-linejoin="round"/>
<path d="M199.22 391.15C199.22 391.15 198.89 414.61 198.22 419.63C197.55 424.65 198.55 431.03 206.22 431.03C213.89 431.03 229.01 426.03 234.37 425.03C239.73 424.03 248.45 421.67 252.13 413.3C255.81 404.93 233.37 405.92 233.37 405.92L234.71 388.83C234.71 388.83 211.62 393.49 199.22 391.15Z" fill="#263238" stroke="#263238" stroke-width="1.193" stroke-linecap="round" stroke-linejoin="round"/>
<path d="M252.17 413.27C252.581 412.457 252.68 411.521 252.45 410.64C250.153 413.759 247.038 416.181 243.45 417.64C235.45 420.99 220.32 424.64 208.93 426.36C203.72 427.12 200.42 426.27 198.35 425.13C199.09 428.38 201.26 431.05 206.25 431.05C213.96 431.05 229.04 426.05 234.4 425.05C239.76 424.05 248.49 421.64 252.17 413.27Z" fill="white" stroke="#263238" stroke-width="1.193" stroke-linecap="round" stroke-linejoin="round"/>
<path d="M233.41 405.89C233.41 405.89 235.08 411.59 230.41 415.28" stroke="white" stroke-width="1.193" stroke-linecap="round" stroke-linejoin="round"/>
<path d="M196.88 378.75C196.88 378.75 196.36 388.94 196.93 390.98C199.07 398.72 199.75 396.91 215.84 396.57C231.93 396.23 238.43 389.81 240.11 385.79C241.79 381.77 240.11 373.05 239.44 370.03C238.77 367.01 233.44 366.03 231.39 366.35C229.34 366.67 197.88 375.4 196.88 378.75Z" fill="#757575" stroke="#263238" stroke-width="1.193" stroke-linecap="round" stroke-linejoin="round"/>
<path d="M86.2803 404.22V426.74C86.2877 427.621 86.5357 428.484 86.9974 429.235C87.4591 429.985 88.1171 430.596 88.9003 431L125.1 449.69C125.744 450.025 126.456 450.21 127.182 450.231C127.907 450.251 128.628 450.108 129.29 449.81L182.62 429.48C183.471 429.099 184.194 428.479 184.701 427.697C185.208 426.915 185.479 426.003 185.48 425.07V397.85L124.48 416.28L86.2803 404.22Z" fill="#367AFF"/>
<mask id="mask0_393_490" style="mask-type:luminance" maskUnits="userSpaceOnUse" x="86" y="397" width="100" height="54">
<path d="M86.2803 404.22V426.74C86.2877 427.621 86.5357 428.484 86.9974 429.235C87.4591 429.985 88.1171 430.596 88.9003 431L125.1 449.69C125.744 450.025 126.456 450.21 127.182 450.231C127.907 450.251 128.628 450.108 129.29 449.81L182.62 429.48C183.471 429.099 184.194 428.479 184.701 427.697C185.208 426.915 185.479 426.003 185.48 425.07V397.85L124.48 416.28L86.2803 404.22Z" fill="white"/>
</mask>
<g mask="url(#mask0_393_490)">
<path opacity="0.18" d="M127.17 415.47L124.49 416.28L86.2803 404.22V426.74C86.2877 427.622 86.5357 428.484 86.9974 429.235C87.4591 429.986 88.1171 430.596 88.9003 431L125.1 449.69C125.74 450.025 126.448 450.21 127.17 450.23V415.47Z" fill="black"/>
</g>
<path d="M86.2803 404.22V426.74C86.2877 427.621 86.5357 428.484 86.9974 429.235C87.4591 429.985 88.1171 430.596 88.9003 431L125.1 449.69C125.744 450.025 126.456 450.21 127.182 450.231C127.907 450.251 128.628 450.108 129.29 449.81L182.62 429.48C183.471 429.099 184.194 428.479 184.701 427.697C185.208 426.915 185.479 426.003 185.48 425.07V397.85L124.48 416.28L86.2803 404.22Z" stroke="#263238" stroke-width="1.193" stroke-linecap="round" stroke-linejoin="round"/>
<path d="M142 366.2L83.5002 385C83.043 385.146 82.6444 385.435 82.3621 385.823C82.0798 386.212 81.9285 386.68 81.9302 387.16V403.84C81.939 404.26 82.0643 404.669 82.2921 405.022C82.5198 405.376 82.8411 405.659 83.2202 405.84L124 425.25C124.275 425.381 124.573 425.456 124.877 425.47C125.181 425.483 125.485 425.436 125.77 425.33L187 402.42C187.433 402.259 187.807 401.97 188.072 401.591C188.336 401.212 188.479 400.762 188.48 400.3L188.59 384.65C188.587 384.132 188.408 383.63 188.083 383.227C187.758 382.824 187.306 382.543 186.8 382.43L143.16 366.14C142.775 366.063 142.376 366.084 142 366.2Z" fill="white"/>
<mask id="mask1_393_490" style="mask-type:luminance" maskUnits="userSpaceOnUse" x="81" y="366" width="108" height="60">
<path d="M142 366.2L83.5002 385C83.043 385.146 82.6444 385.435 82.3621 385.823C82.0798 386.212 81.9285 386.68 81.9302 387.16V403.84C81.939 404.26 82.0643 404.669 82.2921 405.022C82.5198 405.376 82.8411 405.659 83.2202 405.84L124 425.25C124.275 425.381 124.573 425.456 124.877 425.47C125.181 425.483 125.485 425.436 125.77 425.33L187 402.42C187.433 402.259 187.807 401.97 188.072 401.591C188.336 401.212 188.479 400.762 188.48 400.3L188.59 384.65C188.587 384.132 188.408 383.63 188.083 383.227C187.758 382.824 187.306 382.543 186.8 382.43L143.16 366.14C142.775 366.063 142.376 366.084 142 366.2Z" fill="white"/>
</mask>
<g mask="url(#mask1_393_490)">
<path d="M123.93 425.24C124.205 425.371 124.503 425.446 124.807 425.46C125.111 425.473 125.415 425.426 125.7 425.32L187 402.42C187.433 402.259 187.807 401.97 188.071 401.591C188.336 401.212 188.479 400.762 188.48 400.3L188.59 384.65C188.592 384.117 188.4 383.602 188.05 383.2L124.8 406.56L123.93 425.24Z" fill="#367AFF"/>
<path opacity="0.5" d="M123.93 425.24C124.205 425.371 124.503 425.446 124.807 425.46C125.111 425.473 125.415 425.426 125.7 425.32L187 402.42C187.433 402.259 187.807 401.97 188.071 401.591C188.336 401.212 188.479 400.762 188.48 400.3L188.59 384.65C188.592 384.117 188.4 383.602 188.05 383.2L124.8 406.56L123.93 425.24Z" fill="white"/>
<path d="M81.9302 387.11V403.79C81.939 404.21 82.0643 404.619 82.2921 404.973C82.5198 405.326 82.8411 405.609 83.2202 405.79L124 425.25C124.272 425.381 124.568 425.456 124.87 425.47V406.56L82.0002 386.72C81.9614 386.847 81.9379 386.978 81.9302 387.11Z" fill="#367AFF"/>
</g>
<path d="M142 366.2L83.5002 385C83.043 385.146 82.6444 385.435 82.3621 385.823C82.0798 386.212 81.9285 386.68 81.9302 387.16V403.84C81.939 404.26 82.0643 404.669 82.2921 405.022C82.5198 405.376 82.8411 405.659 83.2202 405.84L124 425.25C124.275 425.381 124.573 425.456 124.877 425.47C125.181 425.483 125.485 425.436 125.77 425.33L187 402.42C187.433 402.259 187.807 401.97 188.072 401.591C188.336 401.212 188.479 400.762 188.48 400.3L188.59 384.65C188.587 384.132 188.408 383.63 188.083 383.227C187.758 382.824 187.306 382.543 186.8 382.43L143.16 366.14C142.775 366.063 142.376 366.084 142 366.2Z" stroke="#263238" stroke-width="1.193" stroke-linecap="round" stroke-linejoin="round"/>
<path d="M222.35 335.52C222.35 335.52 230.05 339.2 234.08 346.58C238.11 353.96 235.08 368.02 232.73 372.38C230.38 376.74 214.64 378.75 209.28 378.75C203.92 378.75 202.91 378.08 202.91 378.08C202.91 378.08 185.82 381.43 175.09 383.44C164.36 385.45 167.09 360.32 170.4 348.92C173.71 337.52 192.52 331.83 200.23 331.83C207.94 331.83 222.35 335.52 222.35 335.52Z" fill="#263238" stroke="#263238" stroke-width="1.193" stroke-linecap="round" stroke-linejoin="round"/>
<path d="M202.91 378.08C202.91 378.08 217.32 373.08 223.35 360.32" stroke="white" stroke-width="1.193" stroke-linecap="round" stroke-linejoin="round"/>
<path d="M216.65 370.7C221.294 368.753 225.508 365.909 229.05 362.33" stroke="white" stroke-width="1.193" stroke-linecap="round" stroke-linejoin="round"/>
<path d="M182.8 346.58C182.8 346.58 186.8 367.69 184.8 376.4C182.8 385.11 171.06 386.46 168.38 385.45C165.7 384.44 167.04 363.67 167.04 353.28C167.04 342.89 177.44 343.56 182.8 346.58Z" fill="#757575" stroke="#263238" stroke-width="1.193" stroke-linecap="round" stroke-linejoin="round"/>
<path d="M97.3401 290.27C97.3401 290.27 95.0001 304 96.6701 310.72C97.5209 314.463 99.1159 317.996 101.36 321.11C101.36 321.11 92.9801 333.51 94.6601 343.89C96.3401 354.27 100.66 355.62 100.66 355.62C100.66 355.62 96.9801 374.73 103.66 381.43C110.34 388.13 125.11 395.5 141.53 392.49C157.95 389.48 169.01 388.8 172.36 383.1C175.71 377.4 173.7 352.27 173.7 352.27C173.7 352.27 173.03 324.46 172.36 307.36C171.69 290.26 169.36 276.53 161.3 269.83C153.24 263.13 117.73 273.52 107.01 280.55C96.2901 287.58 97.3401 290.27 97.3401 290.27Z" fill="#367AFF"/>
<mask id="mask2_393_490" style="mask-type:luminance" maskUnits="userSpaceOnUse" x="94" y="267" width="81" height="127">
<path d="M97.3401 290.27C97.3401 290.27 95.0001 304 96.6701 310.72C97.5209 314.463 99.1159 317.996 101.36 321.11C101.36 321.11 92.9801 333.51 94.6601 343.89C96.3401 354.27 100.66 355.62 100.66 355.62C100.66 355.62 96.9801 374.73 103.66 381.43C110.34 388.13 125.11 395.5 141.53 392.49C157.95 389.48 169.01 388.8 172.36 383.1C175.71 377.4 173.7 352.27 173.7 352.27C173.7 352.27 173.03 324.46 172.36 307.36C171.69 290.26 169.36 276.53 161.3 269.83C153.24 263.13 117.73 273.52 107.01 280.55C96.2901 287.58 97.3401 290.27 97.3401 290.27Z" fill="white"/>
</mask>
<g mask="url(#mask2_393_490)">
<path opacity="0.3" d="M99.7303 290.27C99.7303 290.27 97.3802 304.01 99.0602 310.72C99.9061 314.464 101.501 317.999 103.75 321.11C103.75 321.11 95.3703 333.51 97.0503 343.89C98.7303 354.27 103.05 355.62 103.05 355.62C103.05 355.62 99.3603 374.73 106.05 381.43C112.74 388.13 127.54 395.5 144 392.49C160.46 389.48 171.49 388.8 174.84 383.1C178.19 377.4 176.18 352.27 176.18 352.27C176.18 352.27 175.51 324.46 174.84 307.36C174.17 290.26 171.84 276.53 163.78 269.83C155.72 263.13 120.21 273.52 109.49 280.55C98.7702 287.58 99.7303 290.27 99.7303 290.27Z" fill="black"/>
</g>
<path d="M97.3401 290.27C97.3401 290.27 95.0001 304 96.6701 310.72C97.5209 314.463 99.1159 317.996 101.36 321.11C101.36 321.11 92.9801 333.51 94.6601 343.89C96.3401 354.27 100.66 355.62 100.66 355.62C100.66 355.62 96.9801 374.73 103.66 381.43C110.34 388.13 125.11 395.5 141.53 392.49C157.95 389.48 169.01 388.8 172.36 383.1C175.71 377.4 173.7 352.27 173.7 352.27C173.7 352.27 173.03 324.46 172.36 307.36C171.69 290.26 169.36 276.53 161.3 269.83C153.24 263.13 117.73 273.52 107.01 280.55C96.2901 287.58 97.3401 290.27 97.3401 290.27Z" stroke="#263238" stroke-width="1.193" stroke-linecap="round" stroke-linejoin="round"/>
<path d="M101.36 321.11C106.549 324.649 112.485 326.942 118.705 327.809C124.925 328.676 131.262 328.095 137.22 326.11" stroke="#263238" stroke-width="1.193" stroke-linecap="round" stroke-linejoin="round"/>
<path d="M100.69 355.62C100.69 355.62 117.78 372.38 145.94 356.29" stroke="#263238" stroke-width="1.193" stroke-linecap="round" stroke-linejoin="round"/>
<path d="M167.38 273.85C167.38 273.85 161.02 264.13 152.3 258.77C143.58 253.41 121.14 249.39 112.09 247.71C103.04 246.03 93.3202 246.71 90.6402 256.71C87.9602 266.71 88.2902 283.52 90.9702 290.89C93.6502 298.26 104.71 302.62 113.43 297.6C122.15 292.58 146.27 273.13 154.65 272.13C163.03 271.13 166.71 277.54 167.38 273.85Z" fill="#757575"/>
<mask id="mask3_393_490" style="mask-type:luminance" maskUnits="userSpaceOnUse" x="88" y="247" width="80" height="53">
<path d="M167.38 273.85C167.38 273.85 161.02 264.13 152.3 258.77C143.58 253.41 121.14 249.39 112.09 247.71C103.04 246.03 93.3202 246.71 90.6402 256.71C87.9602 266.71 88.2902 283.52 90.9702 290.89C93.6502 298.26 104.71 302.62 113.43 297.6C122.15 292.58 146.27 273.13 154.65 272.13C163.03 271.13 166.71 277.54 167.38 273.85Z" fill="white"/>
</mask>
<g mask="url(#mask3_393_490)">
<path opacity="0.3" d="M148.79 272C153.9 269.87 141.12 273.7 140.27 272.42C139.42 271.14 149.21 264.76 151.34 263.91C153.47 263.06 138.99 266.04 139.42 263.91C139.85 261.78 153.47 261.35 144.1 259.22C134.73 257.09 104.1 251.55 98.1002 249.42C97.6412 249.271 97.2066 249.055 96.8102 248.78C95.2587 249.58 93.9019 250.712 92.8357 252.094C91.7696 253.476 91.0201 255.076 90.6402 256.78C87.9602 266.83 88.2902 283.59 90.9702 290.96C93.3102 297.38 101.97 301.51 109.97 299.16C113.66 296.16 117.07 292.22 122.84 288.59C134.31 281.33 143.68 274.09 148.79 272Z" fill="black"/>
</g>
<path d="M167.38 273.85C167.38 273.85 161.02 264.13 152.3 258.77C143.58 253.41 121.14 249.39 112.09 247.71C103.04 246.03 93.3202 246.71 90.6402 256.71C87.9602 266.71 88.2902 283.52 90.9702 290.89C93.6502 298.26 104.71 302.62 113.43 297.6C122.15 292.58 146.27 273.13 154.65 272.13C163.03 271.13 166.71 277.54 167.38 273.85Z" stroke="#263238" stroke-width="1.193" stroke-linecap="round" stroke-linejoin="round"/>
<path d="M203.58 319.43C203.58 319.43 211.29 320.43 216.31 322.43C221.33 324.43 224.69 336.84 222.68 338.51C220.67 340.18 216.68 338.18 216.68 338.18C213.529 339.289 210.272 340.073 206.96 340.52C202.91 340.88 198.55 321.78 203.58 319.43Z" fill="#367AFF" stroke="#263238" stroke-width="1.193" stroke-linecap="round" stroke-linejoin="round"/>
<path d="M178.11 318.42C178.11 318.42 179.45 318.42 186.82 315.07C194.19 311.72 200.23 311.72 204.92 319.07C209.61 326.42 211.62 335.5 208.92 340.86C206.22 346.22 196.19 349.91 190.82 349.91C185.45 349.91 184.82 342.91 184.82 342.91C184.82 342.91 184.15 331.85 180.82 327.83C177.49 323.81 176.77 319.43 178.11 318.42Z" fill="#757575" stroke="#263238" stroke-width="1.193" stroke-linecap="round" stroke-linejoin="round"/>
<path d="M153.31 273.85C160.68 271.17 170.07 272.85 173.42 282.23C176.77 291.61 179.78 319.09 179.78 319.09C179.78 319.09 188.16 320.09 191.51 323.79C194.86 327.49 196.51 336.86 195.87 341.55C195.23 346.24 183.47 354.95 170.07 355.29C156.67 355.63 146.94 349.29 142.25 332.16C137.56 315.03 139.42 289 139.42 289C139.42 289 141.12 281.33 143.68 279.62" fill="#367AFF"/>
<mask id="mask4_393_490" style="mask-type:luminance" maskUnits="userSpaceOnUse" x="139" y="272" width="58" height="84">
<path d="M153.31 273.85C160.68 271.17 170.07 272.85 173.42 282.23C176.77 291.61 179.78 319.09 179.78 319.09C179.78 319.09 188.16 320.09 191.51 323.79C194.86 327.49 196.51 336.86 195.87 341.55C195.23 346.24 183.47 354.95 170.07 355.29C156.67 355.63 146.94 349.29 142.25 332.16C137.56 315.03 139.42 289 139.42 289C139.42 289 141.12 281.33 143.68 279.62" fill="white"/>
</mask>
<g mask="url(#mask4_393_490)">
<path opacity="0.3" d="M195.87 341.55C196.54 336.86 194.87 327.47 191.51 323.79C191.38 323.64 191.22 323.5 191.08 323.36C191.482 326.372 191.722 329.403 191.8 332.44C192.47 352.11 164.98 348.82 159.44 334.57C156.44 326.9 155.6 293.25 146.66 290.7C141.5 289.23 139.74 293.27 139.18 296.96C139 306.61 139.32 321.48 142.25 332.16C146.94 349.26 156.66 355.62 170.07 355.29C183.48 354.96 195.2 346.24 195.87 341.55Z" fill="black"/>
</g>
<path d="M153.31 273.85C160.68 271.17 170.07 272.85 173.42 282.23C176.77 291.61 179.78 319.09 179.78 319.09C179.78 319.09 188.16 320.09 191.51 323.79C194.86 327.49 196.51 336.86 195.87 341.55C195.23 346.24 183.47 354.95 170.07 355.29C156.67 355.63 146.94 349.29 142.25 332.16C137.56 315.03 139.42 289 139.42 289C139.42 289 141.12 281.33 143.68 279.62" stroke="#263238" stroke-width="1.193" stroke-linecap="round" stroke-linejoin="round"/>
<path d="M179.78 319.09C179.78 319.09 182.4 331.3 168.94 338" stroke="#263238" stroke-width="1.193" stroke-linecap="round" stroke-linejoin="round"/>
<path d="M302 325.13L315.61 293H323.76V325.13H327.29V331.92H323.76V340.55H316.42V331.92H302V325.13ZM316.4 325.13V307.27L308.86 325.13H316.4Z" fill="#263238"/>
<path d="M330.08 304.41C330.08 296.81 334.08 292.41 341.42 292.41C348.76 292.41 352.76 296.76 352.76 304.41V329.13C352.76 336.74 348.76 341.13 341.42 341.13C334.08 341.13 330.08 336.78 330.08 329.13V304.41ZM337.55 329.61C337.55 333.01 339.04 334.3 341.42 334.3C343.8 334.3 345.29 333.01 345.29 329.61V303.94C345.29 300.54 343.79 299.25 341.42 299.25C339.05 299.25 337.55 300.54 337.55 303.94V329.61Z" fill="#263238"/>
<path d="M355.82 325.13L369.4 293H377.55V325.13H381.08V331.92H377.55V340.55H370.21V331.92H355.82V325.13ZM370.21 325.13V307.27L362.68 325.13H370.21Z" fill="#263238"/>
<path d="M164.647 88.9904C164.647 87.337 163.812 86.5104 162.144 86.5104C160.475 86.5104 159.641 87.337 159.641 88.9904V97.7163C159.641 99.3696 160.475 100.196 162.144 100.196C163.812 100.196 164.647 99.3696 164.647 97.7163V88.9904ZM158.493 88.9904C158.493 87.9494 158.799 87.1074 159.411 86.4644C160.023 85.8062 160.934 85.477 162.144 85.477C163.353 85.477 164.264 85.8062 164.876 86.4644C165.489 87.1074 165.795 87.9494 165.795 88.9904V97.7163C165.795 98.7573 165.489 99.6069 164.876 100.265C164.264 100.908 163.353 101.23 162.144 101.23C160.934 101.23 160.023 100.908 159.411 100.265C158.799 99.6069 158.493 98.7573 158.493 97.7163V88.9904ZM174.894 89.1511C174.894 87.5437 174.059 86.74 172.391 86.74H170.163V94.4785H172.391C174.059 94.4785 174.894 93.6748 174.894 92.0674V89.1511ZM169.015 85.7067H172.391C173.6 85.7067 174.511 86.0205 175.123 86.6481C175.736 87.2758 176.042 88.1101 176.042 89.1511V92.0674C176.042 93.1084 175.736 93.9427 175.123 94.5704C174.511 95.198 173.6 95.5119 172.391 95.5119H170.163V101H169.015V85.7067ZM184.783 89.1511C184.783 87.5437 183.949 86.74 182.28 86.74H180.053V94.4785H182.28C183.949 94.4785 184.783 93.6748 184.783 92.0674V89.1511ZM178.905 85.7067H182.28C183.489 85.7067 184.4 86.0205 185.013 86.6481C185.625 87.2758 185.931 88.1101 185.931 89.1511V92.0674C185.931 93.1084 185.625 93.9427 185.013 94.5704C184.4 95.198 183.489 95.5119 182.28 95.5119H180.053V101H178.905V85.7067ZM187.761 88.6689C187.761 87.7044 188.074 86.9543 188.702 86.4185C189.345 85.8674 190.241 85.5919 191.389 85.5919C192.552 85.5919 193.532 85.7067 194.328 85.9363V87.0385C193.593 86.7783 192.644 86.6481 191.481 86.6481C189.766 86.6481 188.909 87.3064 188.909 88.623V89.9319C188.909 90.9422 189.376 91.7 190.309 92.2052L192.996 93.6978C194.236 94.3714 194.856 95.3817 194.856 96.7289V97.923C194.856 98.9333 194.519 99.7217 193.846 100.288C193.187 100.839 192.223 101.115 190.952 101.115C189.697 101.115 188.664 100.969 187.852 100.679V99.5763C188.756 99.8978 189.743 100.059 190.815 100.059C192.743 100.059 193.708 99.3467 193.708 97.923V96.7978C193.708 96.262 193.608 95.8333 193.409 95.5119C193.226 95.1904 192.881 94.8919 192.376 94.6163L189.689 93.1467C188.403 92.4425 187.761 91.3938 187.761 90.0007V88.6689ZM197.107 101.115C196.602 101.115 196.349 100.832 196.349 100.265C196.349 99.6988 196.602 99.4156 197.107 99.4156C197.612 99.4156 197.865 99.6988 197.865 100.265C197.865 100.832 197.612 101.115 197.107 101.115ZM200 101.115C199.495 101.115 199.242 100.832 199.242 100.265C199.242 99.6988 199.495 99.4156 200 99.4156C200.505 99.4156 200.758 99.6988 200.758 100.265C200.758 100.832 200.505 101.115 200 101.115ZM202.893 101.115C202.387 101.115 202.135 100.832 202.135 100.265C202.135 99.6988 202.387 99.4156 202.893 99.4156C203.398 99.4156 203.65 99.6988 203.65 100.265C203.65 100.832 203.398 101.115 202.893 101.115ZM158.722 120.707H164.853V121.74H159.87V128.009H164.647V129.042H159.87V136H158.722V120.707ZM167.042 120.707H168.19V136H167.042V120.707ZM171.639 120.707H172.787V134.967H177.586V136H171.639V120.707ZM179.42 120.707H185.758V121.74H180.568V127.779H185.092V128.813H180.568V134.967H185.758V136H179.42V120.707ZM199.491 134.071L199.445 129.433V120.707H200.593V136H199.078C196.154 128.591 194.409 124.151 193.842 122.681C193.842 122.681 193.858 124.228 193.888 127.32V136H192.763V120.707H194.256C197.562 129.126 199.307 133.581 199.491 134.071ZM209.967 123.99C209.967 122.337 209.133 121.51 207.464 121.51C205.796 121.51 204.961 122.337 204.961 123.99V132.716C204.961 134.37 205.796 135.196 207.464 135.196C209.133 135.196 209.967 134.37 209.967 132.716V123.99ZM203.813 123.99C203.813 122.949 204.119 122.107 204.732 121.464C205.344 120.806 206.255 120.477 207.464 120.477C208.674 120.477 209.584 120.806 210.197 121.464C210.809 122.107 211.115 122.949 211.115 123.99V132.716C211.115 133.757 210.809 134.607 210.197 135.265C209.584 135.908 208.674 136.23 207.464 136.23C206.255 136.23 205.344 135.908 204.732 135.265C204.119 134.607 203.813 133.757 203.813 132.716V123.99ZM220.053 120.707V121.74H217.022V136H215.874V121.74H212.843V120.707H220.053ZM226.378 120.707H232.509V121.74H227.526V128.009H232.302V129.042H227.526V136H226.378V120.707ZM240.622 123.99C240.622 122.337 239.787 121.51 238.119 121.51C236.45 121.51 235.616 122.337 235.616 123.99V132.716C235.616 134.37 236.45 135.196 238.119 135.196C239.787 135.196 240.622 134.37 240.622 132.716V123.99ZM234.468 123.99C234.468 122.949 234.774 122.107 235.386 121.464C235.999 120.806 236.909 120.477 238.119 120.477C239.328 120.477 240.239 120.806 240.851 121.464C241.464 122.107 241.77 122.949 241.77 123.99V132.716C241.77 133.757 241.464 134.607 240.851 135.265C240.239 135.908 239.328 136.23 238.119 136.23C236.909 136.23 235.999 135.908 235.386 135.265C234.774 134.607 234.468 133.757 234.468 132.716V123.99ZM251.03 120.707H252.178V132.716C252.178 133.757 251.872 134.607 251.259 135.265C250.647 135.908 249.736 136.23 248.527 136.23C247.317 136.23 246.406 135.908 245.794 135.265C245.182 134.607 244.875 133.757 244.875 132.716V120.707H246.024V132.716C246.024 134.37 246.858 135.196 248.527 135.196C250.195 135.196 251.03 134.37 251.03 132.716V120.707ZM262.236 134.071L262.19 129.433V120.707H263.338V136H261.822C258.898 128.591 257.153 124.151 256.587 122.681C256.587 122.681 256.602 124.228 256.633 127.32V136H255.508V120.707H257C260.307 129.126 262.052 133.581 262.236 134.071ZM272.941 124.151C272.941 122.544 272.107 121.74 270.438 121.74H267.935V134.967H270.438C272.107 134.967 272.941 134.163 272.941 132.556V124.151ZM266.787 120.707H270.438C271.648 120.707 272.559 121.02 273.171 121.648C273.783 122.276 274.089 123.11 274.089 124.151V132.556C274.089 133.597 273.783 134.431 273.171 135.059C272.559 135.686 271.648 136 270.438 136H266.787V120.707ZM278.154 136.115C277.649 136.115 277.396 135.832 277.396 135.265C277.396 134.699 277.649 134.416 278.154 134.416C278.659 134.416 278.912 134.699 278.912 135.265C278.912 135.832 278.659 136.115 278.154 136.115ZM277.534 120.707H278.797L278.659 132.349H277.672L277.534 120.707Z" fill="black"/>
</svg>
